<svg width="30" height="30" viewBox="0 0 30 30" fill="none" xmlns="http://www.w3.org/2000/svg">
<g clip-path="url(#clip0_155_360)">
<path d="M0.9375 1.875C0.68886 1.875 0.450403 1.97377 0.274587 2.14959C0.0987721 2.3254 0 2.56386 0 2.8125C0 3.06114 0.0987721 3.2996 0.274587 3.47541C0.450403 3.65123 0.68886 3.75 0.9375 3.75H3.01875L3.77062 6.76313L6.57938 21.735C6.61959 21.9498 6.7336 22.1439 6.90171 22.2835C7.06981 22.4232 7.28144 22.4998 7.5 22.5H9.375C8.38044 22.5 7.42661 22.8951 6.72335 23.5984C6.02009 24.3016 5.625 25.2554 5.625 26.25C5.625 27.2446 6.02009 28.1984 6.72335 28.9016C7.42661 29.6049 8.38044 30 9.375 30C10.3696 30 11.3234 29.6049 12.0267 28.9016C12.7299 28.1984 13.125 27.2446 13.125 26.25C13.125 25.2554 12.7299 24.3016 12.0267 23.5984C11.3234 22.8951 10.3696 22.5 9.375 22.5H22.5C21.5054 22.5 20.5516 22.8951 19.8484 23.5984C19.1451 24.3016 18.75 25.2554 18.75 26.25C18.75 27.2446 19.1451 28.1984 19.8484 28.9016C20.5516 29.6049 21.5054 30 22.5 30C23.4946 30 24.4484 29.6049 25.1516 28.9016C25.8549 28.1984 26.25 27.2446 26.25 26.25C26.25 25.2554 25.8549 24.3016 25.1516 23.5984C24.4484 22.8951 23.4946 22.5 22.5 22.5H24.375C24.5936 22.4998 24.8052 22.4232 24.9733 22.2835C25.1414 22.1439 25.2554 21.9498 25.2956 21.735L28.1081 6.735C28.1335 6.59969 28.1287 6.46047 28.0941 6.32722C28.0596 6.19397 27.9961 6.06996 27.9082 5.96401C27.8204 5.85805 27.7102 5.77275 27.5857 5.71416C27.4611 5.65557 27.3252 5.62513 27.1875 5.625H5.41875L4.65937 2.58562C4.60877 2.38272 4.49177 2.20256 4.327 2.0738C4.16222 1.94503 3.95912 1.87506 3.75 1.875H0.9375ZM11.25 26.25C11.25 26.7473 11.0525 27.2242 10.7008 27.5758C10.3492 27.9275 9.87228 28.125 9.375 28.125C8.87772 28.125 8.40081 27.9275 8.04918 27.5758C7.69754 27.2242 7.5 26.7473 7.5 26.25C7.5 25.7527 7.69754 25.2758 8.04918 24.9242C8.40081 24.5725 8.87772 24.375 9.375 24.375C9.87228 24.375 10.3492 24.5725 10.7008 24.9242C11.0525 25.2758 11.25 25.7527 11.25 26.25ZM24.375 26.25C24.375 26.7473 24.1775 27.2242 23.8258 27.5758C23.4742 27.9275 22.9973 28.125 22.5 28.125C22.0027 28.125 21.5258 27.9275 21.1742 27.5758C20.8225 27.2242 20.625 26.7473 20.625 26.25C20.625 25.7527 20.8225 25.2758 21.1742 24.9242C21.5258 24.5725 22.0027 24.375 22.5 24.375C22.9973 24.375 23.4742 24.5725 23.8258 24.9242C24.1775 25.2758 24.375 25.7527 24.375 26.25ZM16.875 10.3125V13.125H19.6875C19.9361 13.125 20.1746 13.2238 20.3504 13.3996C20.5262 13.5754 20.625 13.8139 20.625 14.0625C20.625 14.3111 20.5262 14.5496 20.3504 14.7254C20.1746 14.9012 19.9361 15 19.6875 15H16.875V17.8125C16.875 18.0611 16.7762 18.2996 16.6004 18.4754C16.4246 18.6512 16.1861 18.75 15.9375 18.75C15.6889 18.75 15.4504 18.6512 15.2746 18.4754C15.0988 18.2996 15 18.0611 15 17.8125V15H12.1875C11.9389 15 11.7004 14.9012 11.5246 14.7254C11.3488 14.5496 11.25 14.3111 11.25 14.0625C11.25 13.8139 11.3488 13.5754 11.5246 13.3996C11.7004 13.2238 11.9389 13.125 12.1875 13.125H15V10.3125C15 10.0639 15.0988 9.8254 15.2746 9.64959C15.4504 9.47377 15.6889 9.375 15.9375 9.375C16.1861 9.375 16.4246 9.47377 16.6004 9.64959C16.7762 9.8254 16.875 10.0639 16.875 10.3125Z" fill="white"/>
</g>
<defs>
<clipPath id="clip0_155_360">
<rect width="30" height="30" fill="white"/>
</clipPath>
</defs>
</svg>
