<svg width="120" height="122" viewBox="0 0 120 122" fill="none" xmlns="http://www.w3.org/2000/svg">
<mask id="mask0_82_370" style="mask-type:luminance" maskUnits="userSpaceOnUse" x="0" y="0" width="120" height="122">
<path d="M120 0H0V121.255H120V0Z" fill="white"/>
</mask>
<g mask="url(#mask0_82_370)">
<path d="M102.363 103.405C113.678 92.046 120.022 76.6606 120 60.6281C119.988 59.6386 119.587 58.6935 118.883 57.9981C118.178 57.3022 117.229 56.9125 116.239 56.9125C115.249 56.9125 114.3 57.3022 113.596 57.9981C112.891 58.6935 112.49 59.6386 112.478 60.6281C112.494 74.6782 106.932 88.1608 97.0148 98.1134C92.2005 103.056 86.4449 106.985 80.0872 109.667C73.7301 112.35 66.8999 113.731 59.9999 113.731C53.0999 113.731 46.2697 112.35 39.9125 109.667C33.5552 106.985 27.7995 103.056 22.985 98.1134C13.0809 88.1509 7.5218 74.6738 7.5218 60.6259C7.5218 46.5777 13.0809 33.1005 22.985 23.1379C27.7715 18.2332 33.4839 14.3273 39.7912 11.6469C46.0985 8.96652 52.8752 7.5648 59.7283 7.52309C61.1915 7.56891 62.5789 8.18465 63.5948 9.2389C64.6107 10.2931 65.1743 11.7025 65.1656 13.1665C65.1573 14.6304 64.5772 16.0331 63.5492 17.0755C62.5213 18.1179 61.1267 18.7173 59.663 18.7462C59.5274 18.7464 59.3918 18.754 59.2574 18.7687C48.831 19.1044 38.9382 23.4579 31.6473 30.9187C23.9475 38.6698 19.6261 49.1517 19.6261 60.0771C19.6261 71.0027 23.9475 81.4843 31.6473 89.2354C35.4088 93.0888 39.9031 96.1507 44.8656 98.2412C49.828 100.332 55.1587 101.409 60.5433 101.409C65.9279 101.409 71.2587 100.332 76.2212 98.2412C81.1832 96.1507 85.6776 93.0888 89.4393 89.2354C97.1509 81.4925 101.474 71.0054 101.459 60.0771C101.475 58.3559 101.149 56.648 100.502 55.0531C99.8534 53.4584 98.8962 52.0076 97.6844 50.7849C96.4726 49.562 95.0308 48.5913 93.4419 47.9289C91.8531 47.2665 90.1489 46.9255 88.4273 46.9255C86.7056 46.9255 85.0014 47.2665 83.4126 47.9289C81.8237 48.5913 80.3819 49.562 79.1701 50.7849C77.9583 52.0076 77.0011 53.4584 76.353 55.0531C75.7053 56.648 75.3799 58.3559 75.3958 60.0771C75.3958 60.1868 75.4029 60.29 75.4117 60.3954C75.4029 60.5008 75.3958 60.6062 75.3958 60.7137C75.4205 63.7147 74.5528 66.6554 72.903 69.163C71.2537 71.6701 68.8965 73.6305 66.1309 74.7962C63.3654 75.9614 60.3155 76.2792 57.3694 75.7089C54.4228 75.1381 51.7122 73.7057 49.5813 71.5921C47.4505 69.4786 45.9955 66.78 45.4009 63.8382C44.8064 60.8965 45.0991 57.8444 46.2419 55.0695C47.3846 52.2942 49.326 49.9211 51.8196 48.2511C54.3133 46.5811 57.247 45.6895 60.248 45.6894C60.7458 45.6955 61.2397 45.6026 61.7013 45.4163C62.1629 45.23 62.5827 44.9539 62.9367 44.6041C63.2907 44.2543 63.5723 43.8377 63.7638 43.3784C63.9559 42.9191 64.0547 42.4263 64.0547 41.9286C64.0547 41.4308 63.9559 40.938 63.7638 40.4788C63.5723 40.0194 63.2907 39.6028 62.9367 39.253C62.5827 38.9032 62.1629 38.6271 61.7013 38.4408C61.2397 38.2545 60.7458 38.1617 60.248 38.1677C55.7942 38.1924 51.4473 39.5358 47.756 42.0282C44.0648 44.5206 41.1944 48.0506 39.507 52.1726C37.8198 56.2945 37.3911 60.824 38.2752 65.1895C39.1593 69.5549 41.3165 73.5602 44.4747 76.7012C47.6328 79.8416 51.6505 81.9766 56.0209 82.8366C60.3907 83.6961 64.918 83.2422 69.0304 81.532C73.1428 79.8219 76.657 76.9323 79.1289 73.2271C81.6009 69.5219 82.9197 65.1675 82.9197 60.7137C82.9197 60.604 82.9126 60.5008 82.9038 60.3954C82.9126 60.29 82.9197 60.1846 82.9197 60.0771C82.9049 59.3444 83.0366 58.6161 83.3072 57.9344C83.5772 57.2533 83.9812 56.6326 84.4938 56.1096C85.0069 55.586 85.6194 55.17 86.295 54.8862C86.9707 54.6025 87.6968 54.4563 88.4295 54.4563C89.1621 54.4563 89.8882 54.6025 90.5639 54.8862C91.2395 55.17 91.852 55.586 92.3651 56.1096C92.8777 56.6326 93.2817 57.2533 93.5517 57.9344C93.8223 58.6161 93.954 59.3444 93.9392 60.0771C93.9491 69.0241 90.4074 77.609 84.092 83.9463C81.0301 87.0922 77.3688 89.5922 73.3245 91.2996C69.2801 93.007 64.9345 93.8862 60.5444 93.8862C56.1548 93.8862 51.8093 93.007 47.7649 91.2996C43.7206 89.5922 40.0593 87.0922 36.9973 83.9463C30.6904 77.6035 27.1502 69.0219 27.1502 60.0771C27.1502 51.1322 30.6904 42.5508 36.9973 36.2078C40.0617 33.066 43.7231 30.5682 47.7664 28.8613C51.8097 27.1543 56.1532 26.2726 60.5422 26.2679C60.8797 26.267 61.2156 26.2205 61.5411 26.1296C64.7429 25.6386 67.6501 23.9827 69.706 21.4797C71.762 18.9766 72.8212 15.8027 72.6807 12.5667C72.5402 9.33067 71.2093 6.2605 68.9443 3.94513C66.6792 1.62975 63.6392 0.232184 60.4072 0.0205492C60.2722 0.00584326 60.136 -0.00166823 59.9999 -0.00195312C59.9242 -0.00195312 59.849 -0.00195312 59.7733 -0.00195312C59.736 -0.00195312 59.6997 -0.00195312 59.6635 -0.00195312C59.6273 -0.00195312 59.59 0.00243452 59.5537 0.00353218C51.7351 0.065021 44.0059 1.67358 36.8119 4.73646C29.6178 7.79931 23.1012 12.2559 17.6378 17.8494C6.34115 29.22 0.000976562 44.5974 0.000976562 60.6259C0.000976562 76.654 6.34115 92.0312 17.6378 103.402C23.1517 109.052 29.7403 113.543 37.0156 116.608C44.291 119.674 52.1061 121.253 60.001 121.253C67.896 121.253 75.7108 119.674 82.9867 116.608C90.262 113.543 96.8502 109.052 102.364 103.402L102.363 103.405Z" fill="#0066B2"/>
</g>
<rect x="39.0798" y="7.40137" width="20.0195" height="7.68365" transform="rotate(64.5342 39.0798 7.40137)" fill="#0066B2"/>
<rect x="20.0546" y="20.8257" width="20.0195" height="7.68365" transform="rotate(42.8152 20.0546 20.8257)" fill="#0066B2"/>
<rect x="7.35608" y="42.2598" width="20.0195" height="7.68365" transform="rotate(14.0694 7.35608 42.2598)" fill="#0066B2"/>
<rect x="3.84192" y="64.3682" width="20.0195" height="7.68365" transform="rotate(-5.16282 3.84192 64.3682)" fill="#0066B2"/>
<rect x="8.78137" y="85.6777" width="20.0195" height="7.68365" transform="rotate(-26.2076 8.78137 85.6777)" fill="#0066B2"/>
<rect x="21.4045" y="103.124" width="20.0195" height="7.68365" transform="rotate(-49.8901 21.4045 103.124)" fill="#0066B2"/>
<rect x="40.0647" y="113.993" width="20.0195" height="7.68365" transform="rotate(-78.1734 40.0647 113.993)" fill="#0066B2"/>
<rect x="62.2075" y="117.784" width="20.0195" height="7.68365" transform="rotate(-90.5422 62.2075 117.784)" fill="#0066B2"/>
<rect x="85.0657" y="110.821" width="20.0195" height="7.68365" transform="rotate(-116.006 85.0657 110.821)" fill="#0066B2"/>
<rect x="104.466" y="96.4697" width="20.0195" height="7.68365" transform="rotate(-138.609 104.466 96.4697)" fill="#0066B2"/>
<rect x="117.162" y="73.6006" width="20.0195" height="7.68365" transform="rotate(-166.544 117.162 73.6006)" fill="#0066B2"/>
<ellipse cx="60.9204" cy="61.2285" rx="27.4416" ry="26.103" fill="#0066B2"/>
<path d="M60.257 40.4041C60.5792 39.5335 61.8106 39.5335 62.1327 40.4041L67.3353 54.4638C67.4366 54.7375 67.6524 54.9533 67.9261 55.0546L81.9858 60.2572C82.8564 60.5793 82.8564 61.8107 81.9858 62.1329L67.9261 67.3354C67.6524 67.4367 67.4366 67.6525 67.3353 67.9262L62.1327 81.9859C61.8106 82.8565 60.5792 82.8565 60.257 81.9859L55.0545 67.9262C54.9532 67.6525 54.7374 67.4367 54.4637 67.3354L40.404 62.1329C39.5334 61.8107 39.5334 60.5793 40.404 60.2572L54.4637 55.0546C54.7374 54.9533 54.9532 54.7375 55.0545 54.4638L60.257 40.4041Z" fill="#FDBD10"/>
</svg>
