<svg width="25" height="25" viewBox="0 0 25 25" fill="none" xmlns="http://www.w3.org/2000/svg">
<path d="M12.5 7.29167C12.912 7.29167 13.3148 7.16948 13.6574 6.94056C14 6.71164 14.267 6.38627 14.4247 6.00559C14.5824 5.62491 14.6236 5.20602 14.5433 4.8019C14.4629 4.39777 14.2645 4.02655 13.9731 3.73519C13.6817 3.44384 13.3105 3.24542 12.9064 3.16503C12.5023 3.08465 12.0834 3.1259 11.7027 3.28359C11.322 3.44127 10.9967 3.70829 10.7677 4.0509C10.5388 4.3935 10.4166 4.79629 10.4166 5.20833C10.4166 5.76087 10.6361 6.29077 11.0268 6.68147C11.4175 7.07217 11.9474 7.29167 12.5 7.29167ZM12.5 17.7083C12.0879 17.7083 11.6851 17.8305 11.3425 18.0594C10.9999 18.2884 10.7329 18.6137 10.5752 18.9944C10.4175 19.3751 10.3763 19.794 10.4567 20.1981C10.537 20.6022 10.7355 20.9734 11.0268 21.2648C11.3182 21.5562 11.6894 21.7546 12.0935 21.835C12.4976 21.9154 12.9165 21.8741 13.2972 21.7164C13.6779 21.5587 14.0033 21.2917 14.2322 20.9491C14.4611 20.6065 14.5833 20.2037 14.5833 19.7917C14.5833 19.2391 14.3638 18.7092 13.9731 18.3185C13.5824 17.9278 13.0525 17.7083 12.5 17.7083ZM12.5 10.4167C12.0879 10.4167 11.6851 10.5389 11.3425 10.7678C10.9999 10.9967 10.7329 11.3221 10.5752 11.7027C10.4175 12.0834 10.3763 12.5023 10.4567 12.9064C10.537 13.3106 10.7355 13.6818 11.0268 13.9731C11.3182 14.2645 11.6894 14.4629 12.0935 14.5433C12.4976 14.6237 12.9165 14.5824 13.2972 14.4247C13.6779 14.2671 14.0033 14 14.2322 13.6574C14.4611 13.3148 14.5833 12.912 14.5833 12.5C14.5833 11.9475 14.3638 11.4176 13.9731 11.0269C13.5824 10.6362 13.0525 10.4167 12.5 10.4167Z" fill="#FDBD10"/>
</svg>
